<svg xmlns="http://www.w3.org/2000/svg" fill="none" viewBox="0 0 17 17"><path fill="#4B4B4B" d="M8.286 8.004H.478A.476.476 0 0 0 0 8.482c0 .266.212.478.478.478h7.808a2.43 2.43 0 0 0 2.378 1.947 2.43 2.43 0 0 0 2.379-1.947h3.476a.476.476 0 0 0 .478-.478.476.476 0 0 0-.478-.478h-3.476a2.43 2.43 0 0 0-2.379-1.946 2.43 2.43 0 0 0-2.378 1.946zm3.847.478a1.47 1.47 0 0 1-2.938 0 1.47 1.47 0 0 1 2.938 0zM4.28 13.855H.477a.476.476 0 0 0-.478.478c0 .265.212.478.478.478h3.801a2.43 2.43 0 0 0 2.379 1.947 2.43 2.43 0 0 0 2.378-1.947h7.483a.476.476 0 0 0 .478-.478.476.476 0 0 0-.478-.478H9.033a2.43 2.43 0 0 0-2.379-1.947 2.426 2.426 0 0 0-2.375 1.947zm3.847.478a1.47 1.47 0 1 1-2.94-.002 1.47 1.47 0 0 1 2.94.002zM4.28 2.19H.477A.476.476 0 0 0 0 2.666c0 .265.212.478.478.478h3.801A2.43 2.43 0 0 0 6.658 5.09a2.43 2.43 0 0 0 2.378-1.946h7.486A.476.476 0 0 0 17 2.667a.476.476 0 0 0-.478-.478h-7.49A2.43 2.43 0 0 0 6.655.242 2.423 2.423 0 0 0 4.28 2.19zm3.847.477a1.47 1.47 0 0 1-2.938 0 1.47 1.47 0 0 1 2.938 0z"/></svg>